Coordinates
version=1
nRows=5
nColumns=46
inDegrees=yes

Units are S.I. units (second, meters, Newtons, ...)
Angles are in degrees.

endheader
time	pelvis_tilt	pelvis_list	pelvis_rotation	pelvis_tx	pelvis_ty	pelvis_tz	bb_angle	bb_tx	bb_ty	bb_tz	hip_flexion_r	hip_adduction_r	hip_rotation_r	knee_angle_r	knee_angle_r_beta	ankle_angle_r	subtalar_angle_r	mtp_angle_r	crank_angle_r	hip_flexion_l	hip_adduction_l	hip_rotation_l	knee_angle_l	knee_angle_l_beta	ankle_angle_l	subtalar_angle_l	mtp_angle_l	crank_angle_l	lumbar_extension	lumbar_bending	lumbar_rotation	arm_flex_r	arm_add_r	arm_rot_r	elbow_flex_r	pro_sup_r	wrist_flex_r	wrist_dev_r	arm_flex_l	arm_add_l	arm_rot_l	elbow_flex_l	pro_sup_l	wrist_flex_l	wrist_dev_l
      5.00500000	    -22.75429233	      8.30320693	     -0.13214417	      0.09004787	      1.00492043	     -0.19817125	      0.00000000	      0.50000000	      0.00000000	      0.25000000	     46.20612569	    -13.54989301	     -6.25905273	     37.54309257	      0.65525058	     -6.64006086	      0.45823230	      0.00000000	      0.00000000	    111.03255583	      0.65521552	      4.10528282	    113.42223871	      1.97959151	    -26.09674073	     -9.17010783	      0.00000000	      0.00000000	    -47.56089697	     -7.40856163	     -8.28625772	     89.10878976	     -4.90191317	     33.73088808	     33.94090274	     34.27559246	      0.00000000	      0.00000000	     89.64965191	    -19.04853486	     44.99231498	     54.01998583	     38.38093251	      0.00000000	      0.00000000
      5.01000000	    -23.14017762	      8.38161234	      0.03124067	      0.08940302	      1.00552731	     -0.19837093	      0.00000000	      0.50000000	      0.00000000	      0.25000000	     47.15152737	    -13.82807755	     -6.10246300	     39.58348881	      0.69086221	     -6.67296653	     -0.40861594	      0.00000000	      0.00000000	    110.96719462	      0.65291029	      3.82036078	    112.10399271	      1.95658378	    -24.79332928	     -9.26296415	      0.00000000	      0.00000000	    -47.40808504	     -7.58355251	     -8.45157487	     89.10274425	     -5.16182917	     33.60788678	     34.06209077	     34.31980122	      0.00000000	      0.00000000	     89.64941115	    -18.82779615	     44.75120294	     54.31397347	     38.35452021	      0.00000000	      0.00000000
      5.01500000	    -23.54775729	      8.48268676	      0.05868945	      0.08859742	      1.00596628	     -0.19855858	      0.00000000	      0.50000000	      0.00000000	      0.25000000	     48.31116802	    -13.97959509	     -5.58057170	     41.79070625	      0.72938542	     -6.83137189	     -1.34775577	      0.00000000	      0.00000000	    110.71980240	      0.53871078	      3.57038726	    110.64579569	      1.93113344	    -23.24273885	     -9.27669271	      0.00000000	      0.00000000	    -47.20152978	     -7.86041793	     -8.53043446	     89.06823220	     -5.48750830	     33.47186820	     34.34434921	     34.41324357	      0.00000000	      0.00000000	     89.64463920	    -18.54610931	     44.36715125	     54.65654221	     38.29008977	      0.00000000	      0.00000000
      5.02000000	    -23.65947014	      8.16600670	      0.03270178	      0.08796402	      1.00663764	     -0.19877986	      0.00000000	      0.50000000	      0.00000000	      0.25000000	     49.14507110	    -13.82162707	     -5.43031274	     44.08316545	      0.76939638	     -7.12856392	     -1.97555761	      0.00000000	      0.00000000	    110.07363654	      0.44966538	      3.67463639	    109.18172519	      1.90558059	    -21.78915013	     -9.63198660	      0.00000000	      0.00000000	    -47.22113706	     -7.64978604	     -8.25288845	     89.13124558	     -5.59518277	     33.43007438	     34.48554490	     34.45585480	      0.00000000	      0.00000000	     89.64469008	    -18.44716771	     44.18897272	     54.80073949	     38.26533124	      0.00000000	      0.00000000
      5.02500000	    -23.98696932	      8.09590463	      0.03944024	      0.08712820	      1.00698761	     -0.19903960	      0.00000000	      0.50000000	      0.00000000	      0.25000000	     50.45412570	    -13.83987003	     -5.03140328	     46.64103543	      0.81403963	     -7.38270247	     -3.01956576	      0.00000000	      0.00000000	    109.38458456	      0.27465258	      3.52999087	    107.49708574	      1.87617808	    -19.82921697	     -9.73392304	      0.00000000	      0.00000000	    -47.07634788	     -7.74584283	     -8.18886718	     89.14945080	     -5.87264880	     33.34156707	     34.72155060	     34.51625475	      0.00000000	      0.00000000	     89.63689233	    -18.21066454	     43.94660848	     55.00888662	     38.23698297	      0.00000000	      0.00000000
